<svg xmlns="http://www.w3.org/2000/svg" viewBox="0 0 133 133"><title>Contact2</title><g id="Layer_2" data-name="Layer 2"><g id="Layer_1-2" data-name="Layer 1"><circle cx="66.5" cy="66.5" r="64.5" fill="none" stroke="#189e94" stroke-width="4"/><path d="M103.29,85.27a50.92,50.92,0,0,0-6.09-4.88,65.44,65.44,0,0,0-6.72-4.15c-3.3-1.74-4.71-1.95-5.48-1.95a4.78,4.78,0,0,0-4,2.38,19.94,19.94,0,0,0-1.82,3.59A14.92,14.92,0,0,1,77.84,83l-.06.08-.1,0c-.43-.1-2.11-.62-5.76-3.1a66.29,66.29,0,0,1-8.4-6.83,66.73,66.73,0,0,1-6.83-8.41c-2.47-3.66-3-5.33-3.1-5.76l0-.1.09-.07a15.07,15.07,0,0,1,2.7-1.36l.24-.11A19.64,19.64,0,0,0,60,55.58a4.75,4.75,0,0,0,2.38-4c0-.77-.2-2.18-1.95-5.48a64.51,64.51,0,0,0-4.14-6.72,52.16,52.16,0,0,0-4.88-6.09c-2.09-2.17-3.69-3.15-5.15-3.15-2.86,0-6.59,3.62-9.13,7-1.59,2.11-5.26,7.58-5.26,12.69,0,4.78,3.21,11,5.89,15.38A107,107,0,0,0,51.8,83l1.79,1.8a106.48,106.48,0,0,0,17.8,14.08c4.35,2.69,10.55,5.89,15.38,5.89,5.12,0,10.58-3.67,12.69-5.26,3.37-2.54,7-6.27,7-9.14C106.43,89,105.47,87.37,103.29,85.27ZM86.76,100.72c-3,0-7.77-1.93-13.24-5.28A103.79,103.79,0,0,1,56.45,81.93l-1.74-1.74A104.23,104.23,0,0,1,41.2,63.11c-3.36-5.46-5.28-10.29-5.28-13.24,0-2.64,1.61-6.39,4.28-10a25.69,25.69,0,0,1,3.69-4.09,6.77,6.77,0,0,1,2.22-1.45l.06,0,.05,0c.63.3,3.13,2.28,7,7.85a60.19,60.19,0,0,1,3.65,5.94,11.63,11.63,0,0,1,1.42,3.45v.07l0,.08a3.17,3.17,0,0,1-.93.75A24.19,24.19,0,0,1,55,53.53l-.27.12a21.35,21.35,0,0,0-3.15,1.58,4.06,4.06,0,0,0-2.16,3.5c0,.66,0,2.7,3.85,8.28a70.18,70.18,0,0,0,7.31,9,70,70,0,0,0,9,7.35c5.57,3.8,7.61,3.85,8.28,3.85A4.19,4.19,0,0,0,81.45,85,21.87,21.87,0,0,0,83,81.91a25.19,25.19,0,0,1,1.23-2.56,2.93,2.93,0,0,1,.75-.94l.05,0h.06a13.23,13.23,0,0,1,3.45,1.42,60.31,60.31,0,0,1,6,3.65c5.38,3.72,7.49,6.19,7.84,7l0,.06,0,.06a6.82,6.82,0,0,1-1.45,2.2,26.61,26.61,0,0,1-4.09,3.69C93.15,99.12,89.41,100.72,86.76,100.72Z" fill="#189e94"/></g></g></svg>