<svg xmlns="http://www.w3.org/2000/svg" viewBox="0 0 51.54 51.54"><title>icon</title><g id="Layer_2" data-name="Layer 2"><g id="Layer_1-2" data-name="Layer 1"><circle cx="25.77" cy="25.77" r="25.77" fill="#0a4949"/><path d="M16.62,41.62V9.6H32a6.21,6.21,0,0,1,4.57,1.93,6.31,6.31,0,0,1,1.92,4.6v8.1A6.5,6.5,0,0,1,32,30.72H21v10.9a2.15,2.15,0,0,1-2.16,2.16,2.16,2.16,0,0,1-1.57-.63A2.06,2.06,0,0,1,16.62,41.62ZM21,26.4H32a2.1,2.1,0,0,0,1.52-.63,2.06,2.06,0,0,0,.64-1.53v-8.1a2.06,2.06,0,0,0-.64-1.53A2.1,2.1,0,0,0,32,14H21Z" fill="#116058"/><path d="M17.86,43.27v-32H33.19a6.21,6.21,0,0,1,4.57,1.93,6.31,6.31,0,0,1,1.92,4.6v8.1a6.5,6.5,0,0,1-6.48,6.48h-11v10.9a2.15,2.15,0,0,1-2.16,2.16,2.16,2.16,0,0,1-1.57-.63A2.06,2.06,0,0,1,17.86,43.27ZM22.23,28h11a2.1,2.1,0,0,0,1.52-.63,2.06,2.06,0,0,0,.64-1.53v-8.1a2.06,2.06,0,0,0-.64-1.53,2.1,2.1,0,0,0-1.52-.63h-11Z" fill="#189e94"/></g></g></svg>